PathFileType	4	(X/Y/Z)	OpenSim_Sub11_EMGPreOp_Gyro.trc
DataRate	CameraRate	NumFrames	NumMarkers	Units	OrigDataRate	OrigDataStartFrame	OrigNumFrames
100	100	20	8	m	100	3679	5885
Frame#	Time	torso_imu_offset_imu	pelvis_imu_offset_imu	tibia_r_imu_offset_imu	femur_r_imu_offset_imu	tibia_l_imu_offset_imu	femur_l_imu_offset_imu	toes_r_imu_offset_imu	toes_l_imu_offset_imu
				X1	Y1	Z1	X2	Y2	Z2	X3	Y3	Z3	X4	Y4	Z4	X5	Y5	Z5	X6	Y6	Z6	X7	Y7	Z7	X8		Y8	Z8	

3679	36.78000000	0.17991028	0.07499990	0.05157843	-0.03359075	-0.06296401	-0.08940718	0.03455651	0.13847420	-0.42190749	-0.26151555	0.00491333	-0.36677401	-1.09748102	-0.18454320	-1.29039963	0.71181886	-0.67042179	0.94206283	-0.00601631	-0.02789180	-0.02142256	0.07971168	0.27488115	-1.24080654
3680	36.79000000	0.18343877	0.10264982	0.03556896	-0.05527037	-0.07260626	-0.07380108	0.01138167	0.15074659	-0.46546322	-0.37379191	0.00972036	-0.36394490	-0.63553523	-0.28442825	-1.07695695	0.90186749	-0.68889881	0.93486182	-0.00031914	-0.05119175	-0.01568496	-0.26390233	-1.11184048	-1.58468150
3681	36.80000000	0.17479602	0.11835834	0.02109753	-0.06981537	-0.08147752	-0.06388342	-0.02215623	0.15490038	-0.50419256	-0.47308921	0.01282554	-0.35209246	-0.26796571	-0.28969041	-0.83176292	1.15191721	-0.70257157	0.89034176	-0.04054980	-0.05466316	0.00133184	-2.57194101	-0.96652250	-2.36557800
3682	36.81000000	0.15267979	0.10420305	0.01381721	-0.08089168	-0.07961441	-0.06476835	-0.03899446	0.16838688	-0.53067374	-0.54135454	0.01907037	-0.34210633	-0.30169140	-0.08896850	-0.46924681	1.45929493	-0.70846896	0.80817588	-0.05254788	-0.07518315	0.00747307	-1.06384010	-0.73982820	-2.10733759
3683	36.82000000	0.14865221	0.09746715	0.01024855	-0.10207372	-0.06561842	-0.07350836	-0.06192077	0.18740201	-0.55258555	-0.55690523	0.01624212	-0.32729681	-0.42678163	0.09953275	-0.06496744	1.69414939	-0.68989126	0.68458475	-0.06008252	-0.08246887	0.01259451	0.61157494	-0.59490816	-0.39988512
3684	36.83000000	0.13400112	0.10617384	0.00626444	-0.09594045	-0.02989692	-0.09429927	-0.08959000	0.20625607	-0.56875574	-0.53747351	0.00949555	-0.29814150	-0.24480860	0.07499162	0.08726151	1.74709447	-0.65454576	0.55904412	-0.06534974	-0.11666141	0.01454793	-0.42669944	0.05750385	0.68519575
3685	36.84000000	0.13573080	0.10145204	-0.01293970	-0.06577392	0.02953223	-0.13097386	-0.08879311	0.22784465	-0.60207422	-0.52019083	0.00067699	-0.27743584	-0.28718192	0.02327606	0.01410262	1.64305516	-0.63955541	0.45710781	-0.09089246	-0.12293360	0.01653989	3.17057761	0.43422856	0.00646389
3686	36.85000000	0.13155522	0.08743646	-0.01989256	-0.02017823	0.07837998	-0.17510587	-0.08255631	0.23850438	-0.65854763	-0.49536969	-0.01067551	-0.25797452	-0.62410816	-0.04787325	-0.06983883	1.42043427	-0.57109937	0.32855060	-0.09410654	-0.13653569	0.01211519	1.25638054	-0.73663345	-0.21082755
3687	36.86000000	0.10662943	0.11458680	-0.02728818	0.01174982	0.09971271	-0.21576025	-0.13033459	0.24181249	-0.70220212	-0.37449446	-0.04124683	-0.21785050	-0.50305692	-0.32900630	-0.13238172	1.06568819	-0.36818655	0.26290796	-0.08903805	-0.16250002	0.00066741	-2.10542120	0.16998440	0.01782991
3688	36.87000000	0.09968903	0.15688214	-0.02085568	0.02108906	0.08507974	-0.24338909	-0.22007802	0.24300651	-0.71463235	-0.25946278	-0.06408524	-0.18863641	0.06650795	-0.57813806	-0.15720417	0.65293928	-0.13508068	0.28687018	-0.07902232	-0.16507632	-0.01381833	-0.34867496	-0.37985170	-0.00825793
3689	36.88000000	0.12538393	0.18981356	-0.00987329	0.02032221	0.04915256	-0.24827350	-0.27418835	0.24604372	-0.72303669	-0.19091894	-0.07609167	-0.15302391	0.39531724	-0.48404008	-0.07704471	0.26697515	0.02380359	0.31829274	-0.06264769	-0.17724266	-0.02340214	-0.27323775	-0.00988132	-0.24774636
3690	36.89000000	0.16037387	0.21325684	0.02026388	0.04344917	0.03672212	-0.22868965	-0.30251943	0.26507011	-0.75331574	-0.15736025	-0.07990799	-0.12008553	0.56034454	-0.19726714	0.06331449	0.06177296	0.06900922	0.38498623	-0.07901759	-0.19203738	-0.01733231	-0.16473307	-0.39233905	-0.47979111
3691	36.90000000	0.18056586	0.20100194	0.04956941	0.06115398	0.01103130	-0.19978270	-0.35059322	0.28273556	-0.77563815	-0.13976206	-0.07324683	-0.07920183	0.72767180	-0.07002362	0.15547618	0.08831191	-0.04312728	0.52575805	-0.07752379	-0.22013064	-0.01507182	1.62440622	-0.10087938	-0.38405782
3692	36.91000000	0.19315015	0.17647600	0.07112999	0.05367346	-0.01681479	-0.17069745	-0.39036035	0.29626721	-0.78427908	-0.14722214	-0.04511595	-0.01645092	0.82583781	-0.07397313	0.18442430	0.16929432	-0.23675363	0.64829292	-0.07433366	-0.20720872	-0.01561084	0.16336215	-0.04365255	-0.34705744
3693	36.92000000	0.19049389	0.16655318	0.07218421	0.01962063	-0.02444795	-0.13924748	-0.36936904	0.32972835	-0.79928957	-0.16264572	-0.01484940	0.06013634	0.79566767	-0.18243703	0.18934910	0.27022787	-0.32939402	0.68912865	-0.06500932	-0.21976269	-0.00984582	-0.53411470	-0.10534129	-0.13526769
3694	36.93000000	0.14087122	0.14459296	0.05286208	-0.03181986	-0.01128897	-0.12553463	-0.28484128	0.37120040	-0.83953084	-0.18271996	0.01956945	0.12760822	0.66255399	-0.29868192	0.12370134	0.37074740	-0.31147473	0.62933151	-0.09183413	-0.22698981	-0.02229072	0.30945335	0.01373819	-0.10140867
3695	36.94000000	0.09742898	0.11783121	0.04857175	-0.07475192	0.02837129	-0.12507217	-0.20490340	0.39275355	-0.88907018	-0.17663679	0.03920715	0.18072405	0.57775412	-0.34831787	0.02940367	0.42464102	-0.25560330	0.54614197	-0.05373761	-0.24590692	-0.05179750	-0.28912918	-0.03446122	-0.03200729
3696	36.95000000	0.04641941	0.08221968	0.05088264	-0.12376099	0.06067296	-0.13161539	-0.15334732	0.39438309	-0.94408822	-0.08281765	0.02913525	0.23748214	0.62319289	-0.34700188	-0.00192069	0.43016577	-0.26232159	0.50075483	-0.00871390	-0.23371778	-0.08474884	0.01348648	0.01923872	-0.01612053
3697	36.96000000	-0.01757030	0.04419752	0.04809090	-0.16301584	0.08370833	-0.14790426	-0.12887435	0.39092840	-1.01857042	0.05814116	0.00091724	0.29810039	0.54336414	-0.33112278	-0.02478705	0.45202154	-0.32416953	0.51578303	0.03074424	-0.22813717	-0.11917757	-0.12448934	-0.00736663	-0.02598368
3698	36.97000000	-0.08843735	0.01139071	0.03762702	-0.19107012	0.09770774	-0.15976108	-0.13103902	0.35301706	-1.10252718	0.18233366	-0.02871500	0.37707086	0.18904742	-0.28975414	-0.09979952	0.46733682	-0.40875870	0.56214703	0.03094211	-0.23738297	-0.18485275	-0.04694511	0.02881401	-0.03594810
